<svg width="0" height="0" class="hidden">
    <symbol xmlns="http://www.w3.org/2000/svg" viewBox="0 0 219.786 219.786" id="clear-day">
        <path d="M109.881 183.46a7.5 7.5 0 0 0-7.5 7.5v21.324a7.5 7.5 0 0 0 15 0V190.96a7.5 7.5 0 0 0-7.5-7.5zm0-147.131a7.5 7.5 0 0 0 7.5-7.5V7.503a7.5 7.5 0 0 0-15 0v21.326a7.5 7.5 0 0 0 7.5 7.5zm-62.612 125.58l-15.084 15.076a7.5 7.5 0 0 0 5.302 12.804 7.48 7.48 0 0 0 5.302-2.195l15.084-15.076a7.5 7.5 0 0 0 .003-10.606 7.501 7.501 0 0 0-10.607-.003zM167.208 60.067a7.479 7.479 0 0 0 5.303-2.196l15.082-15.076a7.501 7.501 0 0 0 .002-10.607 7.499 7.499 0 0 0-10.607-.001l-15.082 15.076a7.5 7.5 0 0 0 5.302 12.804zM36.324 109.895a7.5 7.5 0 0 0-7.5-7.5H7.5a7.5 7.5 0 0 0 0 15h21.324a7.5 7.5 0 0 0 7.5-7.5zm175.962-7.5h-21.334a7.5 7.5 0 0 0-7.5 7.5 7.5 7.5 0 0 0 7.5 7.5h21.334a7.5 7.5 0 0 0 0-15zM47.267 57.871a7.477 7.477 0 0 0 5.303 2.196 7.5 7.5 0 0 0 5.303-12.803L42.797 32.188a7.5 7.5 0 0 0-10.606 0 7.5 7.5 0 0 0 0 10.606l15.076 15.077zm125.253 104.04a7.5 7.5 0 0 0-10.608 10.605l15.074 15.076a7.476 7.476 0 0 0 5.304 2.197 7.498 7.498 0 0 0 5.304-12.802l-15.074-15.076zM109.889 51.518c-32.187 0-58.373 26.188-58.373 58.377 0 32.188 26.186 58.375 58.373 58.375 32.19 0 58.378-26.187 58.378-58.375 0-32.189-26.189-58.377-58.378-58.377zm0 101.752c-23.916 0-43.373-19.458-43.373-43.375 0-23.918 19.457-43.377 43.373-43.377 23.919 0 43.378 19.459 43.378 43.377 0 23.917-19.459 43.375-43.378 43.375z"></path>
    </symbol>
    <symbol xmlns="http://www.w3.org/2000/svg" viewBox="0 0 168.29 168.29" id="clear-night">
        <path d="M159.81 127.909a7.503 7.503 0 0 0-5.942-4.565c-24.423-3.241-45.44-19.364-54.848-42.078-9.409-22.715-5.95-48.978 9.028-68.539A7.5 7.5 0 0 0 103.081.732 84.728 84.728 0 0 0 92.005 0C80.957 0 70.152 2.155 59.889 6.406c-20.764 8.601-36.935 24.772-45.533 45.536-8.597 20.761-8.595 43.628.004 64.39 13.074 31.563 43.595 51.957 77.756 51.957h.001c11.051 0 21.872-2.161 32.164-6.424a84.105 84.105 0 0 0 34.553-26.528 7.496 7.496 0 0 0 .976-7.428zm-41.269 20.099c-8.463 3.505-17.353 5.283-26.424 5.282-28.073 0-53.155-16.76-63.899-42.698-7.067-17.061-7.068-35.852-.004-52.911C35.28 40.62 48.567 27.332 65.629 20.265c7.424-3.075 15.189-4.816 23.126-5.188-11.761 22.021-13.291 48.521-3.595 71.93 9.694 23.405 29.509 41.059 53.392 48.315a69.163 69.163 0 0 1-20.011 12.686z"></path>
    </symbol>
    <symbol xmlns="http://www.w3.org/2000/svg" viewBox="0 0 341.078 341.078" id="cloudy">
        <path d="M176.049 249.605a7.5 7.5 0 0 0-7.5 7.5v21.325a7.5 7.5 0 0 0 7.5 7.5 7.5 7.5 0 0 0 7.5-7.5v-21.325a7.5 7.5 0 0 0-7.5-7.5zm0-147.13a7.5 7.5 0 0 0 7.5-7.5V73.649a7.5 7.5 0 0 0-7.5-7.5 7.5 7.5 0 0 0-7.5 7.5v21.325a7.5 7.5 0 0 0 7.5 7.501zm73.556 73.566a7.5 7.5 0 0 0 7.5 7.5h21.324a7.5 7.5 0 0 0 7.5-7.5 7.5 7.5 0 0 0-7.5-7.5h-21.324a7.5 7.5 0 0 0-7.5 7.5zm-147.128 0a7.5 7.5 0 0 0-7.5-7.5H73.643a7.5 7.5 0 0 0-7.5 7.5 7.5 7.5 0 0 0 7.5 7.5h21.334a7.5 7.5 0 0 0 7.5-7.5zm130.882-49.829a7.478 7.478 0 0 0 5.304-2.197l15.076-15.076a7.5 7.5 0 0 0-10.607-10.606l-15.076 15.076a7.5 7.5 0 0 0 5.303 12.803zm-119.95 101.844l-15.074 15.076a7.498 7.498 0 0 0 5.304 12.802 7.478 7.478 0 0 0 5.304-2.197l15.074-15.076a7.498 7.498 0 0 0-.001-10.606 7.5 7.5 0 0 0-10.607.001zm121.005-52.015c0-32.189-26.186-58.377-58.373-58.377-32.191 0-58.379 26.188-58.379 58.377 0 32.188 26.188 58.375 58.379 58.375 32.187 0 58.373-26.187 58.373-58.375zm-101.752 0c0-23.918 19.46-43.377 43.379-43.377 23.916 0 43.373 19.459 43.373 43.377 0 23.917-19.457 43.375-43.373 43.375-23.919 0-43.379-19.458-43.379-43.375zm173.073 53.422c-6.395-12.787-19.896-21.297-34.702-21.297-20.344 0-37.063 15.526-38.517 35.143-13.319 2.421-23.438 13.93-23.438 27.72 0 15.542 12.856 28.188 28.66 28.188h67.838c19.576 0 35.502-15.646 35.502-34.877 0-19.179-15.84-34.792-35.343-34.877zm-.159 54.753h-67.838c-7.532 0-13.66-5.916-13.66-13.188s6.128-13.188 13.66-13.188c.441 0 .964.037 1.644.115a7.499 7.499 0 0 0 8.283-8.535 23.27 23.27 0 0 1-.251-3.334c0-12.639 10.596-22.921 23.619-22.921 10.378 0 19.687 6.738 22.639 16.386a7.5 7.5 0 0 0 8.422 5.201 20.978 20.978 0 0 1 3.482-.29c11.305 0 20.502 8.917 20.502 19.877 0 10.961-9.197 19.877-20.502 19.877zM132 98.037c0-19.179-15.839-34.792-35.342-34.877-6.396-12.787-19.896-21.297-34.703-21.297-20.344 0-37.063 15.526-38.517 35.144C10.119 79.426 0 90.935 0 104.725c0 15.543 12.856 28.188 28.66 28.188h67.836c19.577 0 35.504-15.646 35.504-34.876zm-117 6.688c0-7.272 6.128-13.188 13.66-13.188.442 0 .962.037 1.635.115a7.502 7.502 0 0 0 8.292-8.533 23.298 23.298 0 0 1-.251-3.336c0-12.639 10.596-22.921 23.619-22.921 10.378 0 19.687 6.738 22.639 16.385a7.504 7.504 0 0 0 8.412 5.202 21.218 21.218 0 0 1 3.49-.29c11.306 0 20.504 8.917 20.504 19.878 0 10.959-9.198 19.876-20.504 19.876H28.66c-7.532 0-13.66-5.916-13.66-13.188z"></path>
    </symbol>
    <symbol xmlns="http://www.w3.org/2000/svg" viewBox="0 0 213.555 213.555" id="fog">
        <path d="M103.72 46.588a7.5 7.5 0 0 0 7.5-7.5V15.299c0-4.143-3.357-7.5-7.5-7.5a7.5 7.5 0 0 0-7.5 7.5v23.789a7.5 7.5 0 0 0 7.5 7.5zm63.948 26.481a7.478 7.478 0 0 0 5.302-2.195l16.824-16.817a7.5 7.5 0 0 0 .003-10.606 7.5 7.5 0 0 0-10.606-.003l-16.824 16.817a7.5 7.5 0 0 0 5.301 12.804zM34.485 70.871a7.474 7.474 0 0 0 5.303 2.197 7.5 7.5 0 0 0 5.303-12.802L28.275 43.448a7.5 7.5 0 1 0-10.606 10.605l16.816 16.818zM21.093 137.02h179.929c4.143 0 7.5-3.357 7.5-7.5s-3.357-7.5-7.5-7.5h-33.491c-3.729-31.907-30.911-56.754-63.803-56.754-32.889 0-60.069 24.847-63.797 56.754H21.093a7.5 7.5 0 0 0 0 15zm82.635-56.754c24.61 0 45.062 18.143 48.685 41.754H55.049c3.622-23.612 24.072-41.754 48.679-41.754zm80.923 83.621c0-4.143-3.357-7.5-7.5-7.5H7.5a7.5 7.5 0 0 0-7.5 7.5 7.5 7.5 0 0 0 7.5 7.5h169.651a7.5 7.5 0 0 0 7.5-7.5zm21.404 26.869H36.696a7.5 7.5 0 0 0-7.5 7.5 7.5 7.5 0 0 0 7.5 7.5h169.359c4.143 0 7.5-3.357 7.5-7.5s-3.357-7.5-7.5-7.5z"></path>
    </symbol>
    <symbol xmlns="http://www.w3.org/2000/svg" viewBox="0 0 274.934 274.934" id="partly-cloudy-day">
        <path d="M109.906 204.389a7.5 7.5 0 0 0-7.5 7.5v21.325a7.5 7.5 0 0 0 15 0v-21.325a7.5 7.5 0 0 0-7.5-7.5zm0-147.131a7.5 7.5 0 0 0 7.5-7.5V28.433a7.5 7.5 0 0 0-15 0v21.325a7.5 7.5 0 0 0 7.5 7.5zM47.275 78.801a7.479 7.479 0 0 0 5.303 2.196 7.5 7.5 0 0 0 5.303-12.804L42.799 53.116a7.5 7.5 0 0 0-10.605 10.608l15.081 15.077zm136.188 52.024a7.5 7.5 0 0 0 7.5 7.5h21.324a7.5 7.5 0 0 0 7.5-7.5 7.5 7.5 0 0 0-7.5-7.5h-21.324a7.5 7.5 0 0 0-7.5 7.5zm-147.129 0a7.5 7.5 0 0 0-7.5-7.5H7.5a7.5 7.5 0 0 0-7.5 7.5 7.5 7.5 0 0 0 7.5 7.5h21.334a7.5 7.5 0 0 0 7.5-7.5zm130.883-49.828a7.478 7.478 0 0 0 5.304-2.197l15.076-15.076a7.5 7.5 0 0 0-10.607-10.606l-15.076 15.076a7.5 7.5 0 0 0 5.303 12.803zM47.267 182.84l-15.074 15.076a7.498 7.498 0 0 0 5.304 12.802 7.478 7.478 0 0 0 5.304-2.197l15.074-15.076a7.498 7.498 0 0 0-.001-10.606 7.501 7.501 0 0 0-10.607.001zm121.003-52.015c0-32.189-26.186-58.377-58.373-58.377-32.189 0-58.377 26.188-58.377 58.377 0 32.188 26.188 58.375 58.377 58.375 32.187 0 58.373-26.187 58.373-58.375zm-101.75 0c0-23.918 19.459-43.377 43.377-43.377 23.916 0 43.373 19.459 43.373 43.377 0 23.917-19.457 43.375-43.373 43.375-23.918 0-43.377-19.458-43.377-43.375zm173.071 53.422c-6.395-12.787-19.896-21.297-34.702-21.297-20.344 0-37.064 15.526-38.517 35.144-13.319 2.421-23.439 13.93-23.439 27.72 0 15.542 12.856 28.188 28.66 28.188h67.838c19.576 0 35.502-15.646 35.502-34.877.001-19.18-15.839-34.792-35.342-34.878zm-.159 54.754h-67.838c-7.532 0-13.66-5.916-13.66-13.188s6.128-13.189 13.66-13.189c.441 0 .964.037 1.644.115a7.5 7.5 0 0 0 8.285-8.525 23.416 23.416 0 0 1-.253-3.344c0-12.639 10.596-22.921 23.619-22.921 10.378 0 19.686 6.738 22.639 16.386a7.5 7.5 0 0 0 8.422 5.2 20.978 20.978 0 0 1 3.482-.29c11.305 0 20.502 8.917 20.502 19.877 0 10.961-9.198 19.879-20.502 19.879z"></path>
    </symbol>
    <symbol xmlns="http://www.w3.org/2000/svg" viewBox="0 0 305.367 305.367" id="partly-cloudy-night">
        <path d="M304.796 182.155a7.501 7.501 0 0 0-5.942-4.565c-24.423-3.241-45.439-19.364-54.848-42.078-9.409-22.715-5.95-48.978 9.028-68.539a7.498 7.498 0 0 0-4.967-11.994 84.086 84.086 0 0 0-43.191 5.673c-25.806 10.689-43.98 32.924-49.881 59.047-11.954-13.502-29.57-21.858-48.481-21.858-35.335 0-64.082 28.178-64.082 62.813l.001.365C18.732 162.802 0 182.296 0 206.002c0 24.876 20.625 45.113 45.977 45.113h123.34c22.222 0 41.581-12.232 51.453-30.188a83.573 83.573 0 0 0 16.385 1.637c10.904 0 21.752-2.16 32.114-6.452a84.105 84.105 0 0 0 34.553-26.528 7.497 7.497 0 0 0 .974-7.429zm-135.48 53.96H45.977C28.896 236.115 15 222.606 15 206.002c0-16.605 13.896-30.115 30.977-30.115 1.054 0 2.226.079 3.686.25a7.502 7.502 0 0 0 8.292-8.532 48.385 48.385 0 0 1-.523-6.951c0-26.364 22.018-47.813 49.082-47.813 21.467 0 40.743 13.942 46.96 33.929.08.281.177.554.288.82 1.305 3.233 4.699 5.177 8.191 4.585a44.629 44.629 0 0 1 7.363-.611c23.939 0 43.414 18.965 43.414 42.275 0 23.311-19.475 42.276-43.414 42.276zm94.212-33.861c-11.973 4.959-24.725 6.442-37.293 4.414a56.15 56.15 0 0 0 1.496-12.828c0-31.582-26.205-57.275-58.414-57.275-.456 0-.912.031-1.368.041.65-27.137 17.104-51.506 42.668-62.094a69.154 69.154 0 0 1 23.121-5.179c-11.756 22.019-13.285 48.514-3.589 71.92 9.694 23.403 29.512 41.058 53.392 48.315a69.2 69.2 0 0 1-20.013 12.686z"></path>
    </symbol>
    <symbol xmlns="http://www.w3.org/2000/svg" viewBox="0 0 233.591 233.591" id="rain">
        <path d="M172.247 38.723a59.52 59.52 0 0 0-3.582.108C158.869 15.688 135.365 0 109.444 0 74.109 0 45.362 28.178 45.362 62.813l.001.365C21.662 64.96 2.93 84.454 2.93 108.16c0 24.875 20.625 45.113 45.976 45.113h123.34c32.209 0 58.414-25.694 58.414-57.275.001-31.582-26.204-57.275-58.413-57.275zm0 99.55H48.907c-17.08 0-30.976-13.509-30.976-30.113 0-16.605 13.896-30.115 30.976-30.115 1.054 0 2.226.08 3.687.25a7.5 7.5 0 0 0 8.292-8.532 48.385 48.385 0 0 1-.523-6.951C60.362 36.449 82.38 15 109.444 15c21.54 0 40.878 14.036 47.027 34.132a7.497 7.497 0 0 0 8.412 5.202 44.629 44.629 0 0 1 7.363-.611c23.938 0 43.414 18.965 43.414 42.275.001 23.311-19.475 42.275-43.413 42.275zM39.601 196.751l21.486-21.486a7.5 7.5 0 0 0 0-10.606 7.5 7.5 0 0 0-10.606 0l-21.486 21.486a7.5 7.5 0 0 0 10.606 10.606zm45.838 0l21.484-21.486a7.5 7.5 0 0 0-10.608-10.606l-21.484 21.486a7.501 7.501 0 0 0 10.608 10.606zm45.836 0l21.484-21.486a7.5 7.5 0 0 0-10.607-10.606l-21.484 21.486a7.501 7.501 0 0 0 5.303 12.803 7.483 7.483 0 0 0 5.304-2.197zm56.715-32.093l-21.486 21.486a7.5 7.5 0 0 0 10.606 10.607l21.486-21.486a7.5 7.5 0 0 0 0-10.606 7.498 7.498 0 0 0-10.606-.001zM53.628 199.301l-21.484 21.486a7.501 7.501 0 0 0 5.303 12.803c1.92 0 3.839-.732 5.304-2.197l21.484-21.486a7.5 7.5 0 0 0-10.607-10.606zm45.971 0l-21.484 21.486a7.5 7.5 0 0 0 10.608 10.606l21.484-21.486a7.501 7.501 0 0 0-10.608-10.606zm45.971 0l-21.484 21.486a7.501 7.501 0 0 0 5.303 12.803 7.478 7.478 0 0 0 5.304-2.197l21.484-21.486a7.5 7.5 0 0 0-10.607-10.606z"></path>
    </symbol>
    <symbol xmlns="http://www.w3.org/2000/svg" viewBox="0 0 227.73 227.73" id="sleet">
        <circle cx="183.082" cy="187.694" r="10.499"></circle>
        <circle cx="137.27" cy="187.694" r="10.499"></circle>
        <circle cx="91.139" cy="187.694" r="10.499"></circle>
        <circle cx="45.328" cy="187.694" r="10.499"></circle>
        <circle cx="160.27" cy="216.486" r="10.498"></circle>
        <circle cx="114.139" cy="216.486" r="10.498"></circle>
        <circle cx="68.328" cy="216.486" r="10.498"></circle>
        <path d="M169.316 39.469a59.52 59.52 0 0 0-3.582.108C155.938 16.434 132.434.746 106.513.746c-35.335 0-64.082 28.178-64.082 62.813l.001.365C18.732 65.706 0 85.2 0 108.906c0 24.876 20.625 45.113 45.977 45.113h123.34c32.209 0 58.414-25.694 58.414-57.275s-26.205-57.275-58.415-57.275zm0 99.551H45.977C28.896 139.02 15 125.511 15 108.906s13.896-30.115 30.977-30.115c1.054 0 2.226.08 3.687.25a7.5 7.5 0 0 0 8.291-8.532 48.385 48.385 0 0 1-.523-6.951c0-26.364 22.018-47.813 49.082-47.813 21.54 0 40.879 14.036 47.027 34.132a7.496 7.496 0 0 0 8.412 5.202 44.629 44.629 0 0 1 7.363-.611c23.938 0 43.414 18.965 43.414 42.275 0 23.312-19.475 42.277-43.414 42.277z"></path>
    </symbol>
    <symbol xmlns="http://www.w3.org/2000/svg" viewBox="0 0 227.73 227.73" id="snow">
        <circle cx="183.082" cy="202.09" r="10.499"></circle>
        <circle cx="137.27" cy="202.09" r="10.499"></circle>
        <circle cx="91.139" cy="202.09" r="10.499"></circle>
        <circle cx="45.328" cy="202.09" r="10.499"></circle>
        <path d="M169.316 53.864c-1.193 0-2.389.036-3.581.108-9.797-23.143-33.301-38.83-59.222-38.83-35.335 0-64.082 28.178-64.082 62.813l.001.365C18.731 80.102 0 99.596 0 123.302c0 24.876 20.625 45.113 45.977 45.113h123.34c32.21 0 58.414-25.694 58.414-57.275-.001-31.582-26.205-57.276-58.415-57.276zm0 99.551H45.977c-17.08 0-30.977-13.509-30.977-30.113 0-16.605 13.896-30.115 30.977-30.115 1.054 0 2.226.08 3.687.25a7.501 7.501 0 0 0 8.292-8.532 48.242 48.242 0 0 1-.523-6.951c0-26.364 22.019-47.813 49.082-47.813 21.54 0 40.878 14.036 47.027 34.132a7.502 7.502 0 0 0 8.412 5.202 44.638 44.638 0 0 1 7.363-.611c23.938 0 43.414 18.965 43.414 42.275-.001 23.311-19.476 42.276-43.415 42.276z"></path>
    </symbol>
    <symbol xmlns="http://www.w3.org/2000/svg" viewBox="0 0 226.705 226.705" id="wind">
        <path d="M174.178 91.582c-23.999 0-43.523 19.523-43.523 43.521 0 20.026 16.292 36.318 36.316 36.318a7.5 7.5 0 0 0 7.5-7.5 7.5 7.5 0 0 0-7.5-7.5c-11.754 0-21.316-9.563-21.316-21.318 0-15.727 12.795-28.521 28.523-28.521 20.693 0 37.527 16.834 37.527 37.525 0 26.901-21.885 48.787-48.785 48.787H7.5a7.5 7.5 0 0 0-7.5 7.5 7.5 7.5 0 0 0 7.5 7.5h155.42c35.171 0 63.785-28.615 63.785-63.787 0-28.962-23.563-52.525-52.527-52.525z"></path>
        <path d="M7.5 151.57h69.889c23.534 0 42.68-19.146 42.68-42.68 0-19.652-15.989-35.641-35.643-35.641-16.55 0-30.014 13.464-30.014 30.014 0 14.066 11.444 25.51 25.51 25.51 4.142 0 7.5-3.357 7.5-7.5s-3.358-7.5-7.5-7.5c-5.795 0-10.51-4.715-10.51-10.51 0-8.278 6.735-15.014 15.014-15.014 11.382 0 20.643 9.26 20.643 20.641 0 15.263-12.417 27.68-27.68 27.68H7.5c-4.142 0-7.5 3.357-7.5 7.5s3.358 7.5 7.5 7.5zm122.902-72.269h52.418c18.133 0 32.885-14.752 32.885-32.885 0-15.222-12.385-27.605-27.607-27.605-12.895 0-23.385 10.49-23.385 23.385 0 11.032 8.975 20.008 20.006 20.008a6.5 6.5 0 1 0 0-13c-3.863 0-7.006-3.144-7.006-7.008 0-5.727 4.659-10.385 10.385-10.385 8.055 0 14.607 6.552 14.607 14.605 0 10.965-8.92 19.885-19.885 19.885h-52.418a6.5 6.5 0 1 0 0 13z"></path>
    </symbol>
</svg>